<svg width="58" height="58" viewBox="0 0 58 58" fill="none" xmlns="http://www.w3.org/2000/svg">
<path d="M32.6094 57.7109C18.7695 57.7109 7.50781 46.4492 7.50781 32.6094C7.50781 31.2852 8.57422 30.2187 9.89844 30.2187H30.207V9.91016C30.207 8.58594 31.2734 7.51953 32.5977 7.51953C46.4375 7.51953 57.6992 18.7812 57.6992 32.6211C57.7109 46.4492 46.4492 57.7109 32.6094 57.7109ZM12.4414 35C13.625 45.0781 22.2266 52.918 32.6094 52.918C43.8125 52.918 52.918 43.8008 52.918 32.6094C52.918 22.2148 45.0781 13.625 35 12.4414V32.6094C35 33.9336 33.9336 35 32.6094 35H12.4414Z" fill="#333399"/>
<path d="M25.3906 27.7812H2.67969C1.35547 27.7812 0.289062 26.7148 0.289062 25.3906C0.289062 11.5508 11.5508 0.289062 25.3906 0.289062C26.7148 0.289062 27.7812 1.35547 27.7812 2.67969V25.3906C27.7812 26.7148 26.7148 27.7812 25.3906 27.7812ZM5.21094 23H22.9883V5.21094C13.707 6.3125 6.3125 13.707 5.21094 23Z" fill="#333399"/>
</svg>
