<svg width="58" height="58" viewBox="0 0 58 58" fill="none" xmlns="http://www.w3.org/2000/svg">
<path d="M4.84771 25.2852C5.08209 25.2266 27.3712 20.0117 47.2696 11.8906L45.6758 15.7695C45.1719 16.9883 45.7579 18.4062 46.9883 18.8867C48.3946 19.4492 49.7657 18.5703 50.1055 17.5742L54.1719 7.625C54.418 7.03906 54.4063 6.37109 54.1602 5.78515C53.9141 5.19922 53.4454 4.73047 52.8477 4.49609L42.8282 0.453122C41.5977 -0.0390657 40.2032 0.546872 39.711 1.77734C39.2188 3.00781 39.8048 4.40234 41.0352 4.89453L46.4024 7.0625C26.6563 15.2539 4.00396 20.5625 3.76959 20.6211C2.48053 20.9141 1.67193 22.2031 1.97662 23.4922C2.23443 24.5937 3.41803 25.6367 4.84771 25.2852Z" fill="#333399"/>
<path d="M55.1211 52.9297V25.0039C55.1211 23.6797 54.0547 22.6133 52.7305 22.6133C51.4062 22.6133 50.3398 23.6797 50.3398 25.0039V52.918H39.1016V28.5781C39.1016 27.2539 38.0352 26.1875 36.7109 26.1875C35.3867 26.1875 34.3203 27.2539 34.3203 28.5781V52.9297H23.082V32.1406C23.082 30.8164 22.0156 29.75 20.6914 29.75C19.3672 29.75 18.3008 30.8164 18.3008 32.1406V52.9297H7.05078V36.8984C7.05078 35.5742 5.98438 34.5078 4.66016 34.5078C3.33594 34.5078 2.26953 35.5742 2.26953 36.8984V52.9648C1.14453 53.1641 0.289062 54.1367 0.289062 55.3203C0.289062 56.6445 1.35547 57.7109 2.67969 57.7109H55.3203C56.6445 57.7109 57.7109 56.6445 57.7109 55.3203C57.7109 53.9961 56.5742 52.8594 55.1211 52.9297Z" fill="#333399"/>
</svg>
