<svg width="62" height="41" viewBox="0 0 62 41" fill="none" xmlns="http://www.w3.org/2000/svg">
<path d="M15.994 0.327999C26.3567 0.327999 31.538 7.114 31.538 20.686C31.538 27.3367 30.2233 32.3827 27.594 35.824C24.9647 39.2653 21.098 40.986 15.994 40.986C5.59267 40.986 0.392 34.1227 0.392 20.396C0.392 13.8227 1.70667 8.83467 4.336 5.432C7.004 2.02933 10.89 0.327999 15.994 0.327999ZM15.936 8.158C14.1187 8.158 12.6687 8.75733 11.586 9.956C10.8513 10.8067 10.2327 12.1793 9.73 14.074C9.266 15.9687 9.034 17.9213 9.034 19.932C9.034 24.4947 9.57533 27.8393 10.658 29.966C11.7793 32.0927 13.5387 33.156 15.936 33.156C18.2947 33.156 20.0347 32.1313 21.156 30.082C22.316 28.0327 22.896 24.8813 22.896 20.628C22.896 12.3147 20.576 8.158 15.936 8.158ZM61.5797 40H35.1897V33.446L48.7617 18.598C51.0817 15.9687 52.2417 13.7067 52.2417 11.812C52.2417 10.652 51.8744 9.76267 51.1397 9.144C50.4051 8.48667 49.3804 8.158 48.0657 8.158C46.5191 8.158 45.3784 8.54466 44.6437 9.318C43.9091 10.0913 43.2324 11.638 42.6137 13.958L34.6097 11.754C36.3111 4.13667 40.7964 0.327999 48.0657 0.327999C51.8551 0.327999 54.9097 1.41067 57.2297 3.576C59.5884 5.70267 60.7677 8.52533 60.7677 12.044C60.7677 15.756 59.3371 19.1587 56.4757 22.252L47.5437 32.054H61.5797V40Z" fill="#00CC99"/>
</svg>
