<svg width="61" height="41" viewBox="0 0 61 41" fill="none" xmlns="http://www.w3.org/2000/svg">
<path d="M15.994 0.327999C26.3567 0.327999 31.538 7.114 31.538 20.686C31.538 27.3367 30.2233 32.3827 27.594 35.824C24.9647 39.2653 21.098 40.986 15.994 40.986C5.59267 40.986 0.392 34.1227 0.392 20.396C0.392 13.8227 1.70667 8.83467 4.336 5.432C7.004 2.02933 10.89 0.327999 15.994 0.327999ZM15.936 8.158C14.1187 8.158 12.6687 8.75733 11.586 9.956C10.8513 10.8067 10.2327 12.1793 9.73 14.074C9.266 15.9687 9.034 17.9213 9.034 19.932C9.034 24.4947 9.57533 27.8393 10.658 29.966C11.7793 32.0927 13.5387 33.156 15.936 33.156C18.2947 33.156 20.0347 32.1313 21.156 30.082C22.316 28.0327 22.896 24.8813 22.896 20.628C22.896 12.3147 20.576 8.158 15.936 8.158ZM46.5577 23.586H43.0777V16.104H46.5577C49.6511 16.104 51.1977 14.7893 51.1977 12.16C51.1977 10.9227 50.7917 9.956 49.9797 9.26C49.2064 8.52533 48.1431 8.158 46.7897 8.158C45.6297 8.158 44.6631 8.42867 43.8897 8.97C43.1551 9.47267 42.1691 10.536 40.9317 12.16L33.9137 8.332C35.6537 5.47067 37.5097 3.42133 39.4817 2.184C41.4924 0.946666 43.9091 0.327999 46.7317 0.327999C50.4824 0.327999 53.5757 1.43 56.0117 3.634C58.4477 5.838 59.6657 8.622 59.6657 11.986C59.6657 14.8087 58.6024 17.2833 56.4757 19.41C59.1437 21.846 60.4777 24.7847 60.4777 28.226C60.4777 31.8993 59.1631 34.954 56.5337 37.39C53.9431 39.7873 50.6564 40.986 46.6737 40.986C44.5471 40.986 42.5557 40.5993 40.6997 39.826C38.8437 39.014 37.3357 37.8927 36.1757 36.462C34.7837 34.838 33.7011 32.4213 32.9277 29.212L41.1057 27.066C41.7631 29.4247 42.4784 31.0293 43.2517 31.88C44.0251 32.7307 45.1851 33.156 46.7317 33.156C48.2784 33.156 49.5157 32.7113 50.4437 31.822C51.4104 30.894 51.8937 29.676 51.8937 28.168C51.8937 25.1133 50.1151 23.586 46.5577 23.586Z" fill="#00CC99"/>
</svg>
